<svg width="43" height="64" viewBox="0 0 43 64" fill="none" xmlns="http://www.w3.org/2000/svg">
<path fill-rule="evenodd" clip-rule="evenodd" d="M21.4846 32.0006C21.4846 26.1096 26.2602 21.334 32.1512 21.334C38.0422 21.334 42.8177 26.1096 42.8177 32.0006C42.8177 37.8916 38.0422 42.6672 32.1512 42.6672C26.2602 42.6672 21.4846 37.8916 21.4846 32.0006Z" fill="#1ABCFE"/>
<path fill-rule="evenodd" clip-rule="evenodd" d="M0.147217 53.3326C0.147217 47.4416 4.9228 42.666 10.8138 42.666H21.4803V53.3326C21.4803 59.2236 16.7048 63.9992 10.8138 63.9992C4.9228 63.9992 0.147217 59.2236 0.147217 53.3326Z" fill="#0ACF83"/>
<path fill-rule="evenodd" clip-rule="evenodd" d="M21.4846 0V21.3332H32.1512C38.0422 21.3332 42.8177 16.5576 42.8177 10.6666C42.8177 4.7756 38.0422 0 32.1512 0H21.4846Z" fill="#FF7262"/>
<path fill-rule="evenodd" clip-rule="evenodd" d="M0.147339 10.6666C0.147339 16.5576 4.92292 21.3332 10.8139 21.3332H21.4805V0H10.8139C4.92292 0 0.147339 4.7756 0.147339 10.6666Z" fill="#F24E1E"/>
<path fill-rule="evenodd" clip-rule="evenodd" d="M0.147217 32.0006C0.147217 37.8916 4.9228 42.6672 10.8138 42.6672H21.4803V21.334H10.8138C4.9228 21.334 0.147217 26.1096 0.147217 32.0006Z" fill="#A259FF"/>
</svg>
