<svg width="50" height="68" viewBox="0 0 50 68" fill="none" xmlns="http://www.w3.org/2000/svg">
<path d="M25.315 8.87722L21.6531 15.7849L27.3956 26.9371L33.3878 21.2778L27.2292 8.87722C27.2292 8.87722 26.9821 8.48933 26.7298 8.37787C26.5782 8.31089 26.4793 8.29999 26.3137 8.29465C26.1161 8.28827 25.9946 8.29681 25.8143 8.37787C25.5628 8.49095 25.315 8.87722 25.315 8.87722Z" fill="#FFA611" stroke="#FFA611" stroke-width="2.28571"/>
<path d="M10.0571 2.83225C9.80747 3.3316 1.81787 52.9337 1.81787 52.9337L20.377 18.2289L12.221 2.6658C12.221 2.6658 11.8881 2.16645 11.6384 2.08323C11.3887 2.00001 11.5117 1.99999 11.1391 2C10.9726 2 10.6397 2.16645 10.6397 2.16645C10.6397 2.16645 10.3068 2.33291 10.0571 2.83225Z" fill="#FFA715" stroke="#FFA715" stroke-width="2.28571"/>
<path d="M26.2028 29.2974L20.3771 18.2285L1.81787 52.9333L26.2028 29.2974Z" fill="#F5830F" stroke="#F5830F" stroke-width="2.28571"/>
<path d="M40.6842 15.4821L2.31787 52.5L24.2057 65.8333C24.2057 65.8333 24.7882 65.9997 24.9547 65.9997C25.1211 65.9997 25.2717 65.9948 25.6205 65.9165C25.9328 65.8464 26.3695 65.5836 26.3695 65.5836L48.1745 52.9334L42.7649 16.3144C42.7649 16.3144 42.6597 15.8743 42.5152 15.6486C42.3783 15.4348 42.2655 15.3157 42.099 15.2325C41.8647 15.1153 41.6102 15.1181 41.35 15.1492C41.0322 15.1873 40.6842 15.4821 40.6842 15.4821Z" fill="#FFCB30" stroke="#FFCB2F" stroke-width="2.28571"/>
</svg>
