<svg width="65" height="64" viewBox="0 0 65 64" fill="none" xmlns="http://www.w3.org/2000/svg">
<path fill-rule="evenodd" clip-rule="evenodd" d="M1.48531 28.7699C-0.298648 30.5538 -0.298652 33.4462 1.4853 35.2301L28.9172 62.662C30.7012 64.446 33.5935 64.446 35.3775 62.662L62.8094 35.2301C64.5933 33.4462 64.5933 30.5538 62.8094 28.7699L35.3775 1.33797C33.5935 -0.445987 30.7012 -0.445991 28.9172 1.33797L23.4569 6.79825L30.764 14.1514C31.216 14.0104 31.6964 13.9345 32.1945 13.9345C34.8597 13.9345 37.0203 16.1087 37.0203 18.7907C37.0203 19.2919 36.9448 19.7754 36.8047 20.2303L44.1229 27.5946C44.5905 27.4427 45.0894 27.3606 45.6073 27.3606C48.2725 27.3606 50.4331 29.5348 50.4331 32.2168C50.4331 34.8988 48.2725 37.073 45.6073 37.073C42.9421 37.073 40.7815 34.8988 40.7815 32.2168C40.7815 31.5038 40.9342 30.8266 41.2085 30.2167L34.3945 23.3597V41.1052C35.9535 41.9102 37.0203 43.544 37.0203 45.4286C37.0203 48.1106 34.8597 50.2848 32.1945 50.2848C29.5293 50.2848 27.3687 48.1106 27.3687 45.4286C27.3687 43.3499 28.6666 41.5763 30.4913 40.8835V23.3359C28.6666 22.6431 27.3687 20.8694 27.3687 18.7907C27.3687 18.0586 27.5297 17.3643 27.8181 16.7417L20.6898 9.56842L21.1656 9.08954L1.48531 28.7699Z" fill="#EE513B"/>
</svg>
