<svg width="64" height="64" viewBox="0 0 64 64" fill="none" xmlns="http://www.w3.org/2000/svg">
<rect width="63.9994" height="63.9996" fill="#FFCA28"/>
<path d="M38.8574 53.2275L43.5695 50.1096C43.9387 51.2698 46.2771 54.0251 49.2309 54.0251C52.1848 54.0251 53.5562 52.4118 53.5562 51.3423C53.5562 48.4276 50.54 47.3999 49.0913 46.9063C48.8551 46.8259 48.6606 46.7596 48.5276 46.7016C48.4595 46.6719 48.3563 46.6325 48.2239 46.5819C46.6127 45.9664 40.6684 43.6953 40.6684 37.1122C40.6684 29.8612 47.6661 29.0273 49.2485 29.0273C50.2838 29.0273 55.2616 29.1542 57.7407 33.813L53.1694 37.0034C52.1672 34.9732 50.5021 34.3024 49.4771 34.3024C46.9452 34.3024 46.4178 36.1586 46.4178 37.0034C46.4178 39.3742 49.1685 40.4368 51.4912 41.334C52.0989 41.5688 52.6772 41.7922 53.1694 42.0247C55.7012 43.2212 59.4286 45.1789 59.4286 51.3423C59.4286 54.4293 56.8394 59.4271 50.321 59.4271C41.5651 59.4271 39.2442 54.1702 38.8574 53.2275Z" fill="#3E3E3E"/>
<path d="M16.0005 53.8467L20.9117 50.7304C21.2965 51.8899 22.7919 54.0279 24.9616 54.0279C27.1313 54.0279 28.2419 51.7993 28.2419 50.7304V29.7131H34.2819V50.7304C34.3796 53.6293 32.7719 59.4272 25.6763 59.4272C19.1525 59.4272 16.4403 55.5498 16.0005 53.8467Z" fill="#3E3E3E"/>
</svg>
