<svg width="61" height="64" viewBox="0 0 61 64" fill="none" xmlns="http://www.w3.org/2000/svg">
<path d="M33.1129 0.68279C31.4904 -0.229647 29.3754 -0.225544 27.7516 0.68279C19.6189 5.17089 11.4862 9.66037 3.35213 14.1464C1.76935 14.9791 0.701802 16.6788 0.718829 18.4431V45.5606C0.7074 47.3593 1.82999 49.0755 3.45359 49.8967C5.78997 51.1397 8.05989 52.5089 10.4385 53.6691C13.1861 55.0192 16.6236 55.3178 19.4048 53.9098C21.6623 52.7427 22.665 50.1474 22.6622 47.7623C22.6804 38.8128 22.665 29.863 22.6692 20.9135C22.7229 20.5157 22.4243 20.0906 21.9905 20.1002C20.9512 20.0838 19.9104 20.0906 18.8711 20.0974C18.4783 20.0603 18.0951 20.3865 18.1247 20.7812C18.1107 29.6731 18.1275 38.5677 18.1163 47.461C18.139 48.6911 17.3079 49.8735 16.1224 50.289C13.3842 51.2487 5.56886 46.1742 5.56886 46.1742C5.28205 46.0414 5.09992 45.7303 5.12803 45.4214C5.12803 36.4746 5.12943 27.5275 5.12803 18.5821C5.08862 18.2215 5.3109 17.8967 5.6421 17.7494C13.748 13.2878 21.8496 8.81494 29.9555 4.35054C30.2369 4.16264 30.6295 4.1632 30.9104 4.35191C39.0162 8.81494 47.1193 13.2837 55.2266 17.7456C55.5589 17.8926 55.7716 18.2229 55.7378 18.5821C55.7364 27.5275 55.7406 36.4746 55.735 45.42C55.759 45.7366 55.5955 46.0434 55.2998 46.1825C47.2696 50.6199 39.148 54.9142 31.1906 59.4806C30.8434 59.6798 30.4501 59.9054 30.0611 59.686C27.9685 58.5285 25.9013 57.3259 23.8156 56.1573C23.5889 56.0157 23.3001 55.9551 23.0636 56.1133C22.1284 56.6061 21.249 57.0053 20.1752 57.4303C18.6669 58.0273 18.9079 58.2716 20.268 59.0639C22.7072 60.4443 25.1505 61.8192 27.5895 63.201C29.1951 64.203 31.3526 64.2744 33.01 63.3483C41.1441 58.8659 49.2754 54.378 57.4109 49.8956C59.0303 49.0697 60.1584 47.3604 60.147 45.5604V18.4431C60.1626 16.7146 59.1359 15.0452 57.6009 14.2002C49.44 9.69022 41.2752 5.19004 33.1129 0.68279Z" fill="#53C657"/>
<path d="M45.3857 21.0428C42.1933 19.3349 38.3954 19.244 34.8478 19.4671C32.2849 19.7204 29.5893 20.4276 27.722 22.2648C25.8068 24.1118 25.39 27.0941 26.2997 29.5052C26.9516 31.2088 28.5924 32.3168 30.2893 32.9028C32.4752 33.6745 34.7709 33.9131 37.0674 34.1517C39.1621 34.3694 41.2574 34.5872 43.2707 35.2096C44.0931 35.4822 45.0508 35.8991 45.3027 36.7937C45.5352 37.8534 45.2803 39.0852 44.4199 39.8214C41.687 41.9845 34.0852 41.653 31.3851 39.9506C30.2935 39.2253 29.823 37.9414 29.6318 36.718C29.6105 36.3367 29.3036 35.9871 28.8896 36.016C27.8531 36.0037 26.8165 36.0064 25.78 36.0146C25.4182 35.9843 25.0422 36.2417 25.0224 36.6107C24.8095 42.2145 29.956 44.6575 34.7846 45.1955C37.5434 45.4583 40.3626 45.4432 43.0792 44.8513C45.1212 44.3863 47.1686 43.5302 48.5744 41.9572C50.3079 40.0457 50.6486 37.1997 49.8712 34.8186C49.2769 33.0421 47.5784 31.9024 45.8422 31.3162C43.4811 30.5066 40.6829 30.0714 38.5445 29.8677C35.4361 29.5716 31.7423 29.6926 30.8626 27.65C30.5118 26.5806 30.8103 25.2526 31.7932 24.5948C34.3937 22.8308 39.6861 23.0651 42.3792 24.3828C43.6159 25.0021 44.3324 26.2738 44.6281 27.5577C44.683 27.935 44.9367 28.3284 45.3734 28.312C46.4027 28.3325 47.4322 28.3174 48.4615 28.3188C48.8151 28.3437 49.2023 28.144 49.2713 27.782C49.2277 25.0985 47.8574 22.3517 45.3857 21.0428Z" fill="#53C657"/>
</svg>
