<svg width="97" height="64" viewBox="0 0 97 64" fill="none" xmlns="http://www.w3.org/2000/svg">
<path d="M54.5222 64H90.2093C91.343 64 92.4563 63.7043 93.4381 63.1427C94.4178 62.5828 95.2328 61.7748 95.8013 60.8C96.3674 59.8285 96.6655 58.7241 96.6653 57.5997C96.6645 56.4753 96.3653 55.3713 95.7984 54.4003L71.832 13.2573C71.2636 12.2827 70.4486 11.4748 69.4691 10.9149C68.4861 10.3528 67.3733 10.0573 66.241 10.0576C65.1078 10.0576 63.9946 10.3536 63.0131 10.9152C62.0335 11.475 61.2186 12.2829 60.6502 13.2576L54.5222 23.7843L42.5405 3.19936C41.9718 2.22458 41.1566 1.4167 40.1766 0.85696C39.1935 0.295081 38.0806 -0.000317267 36.9482 2.55707e-07C35.8147 2.55707e-07 34.7011 0.29568 33.7194 0.85728C32.7395 1.417 31.9243 2.22475 31.3555 3.19936L1.53216 54.4C0.965122 55.371 0.665978 56.4752 0.665284 57.5997C0.664644 58.7232 0.962884 59.8269 1.52928 60.8C2.09777 61.7748 2.91281 62.5827 3.89248 63.1427C4.87574 63.7048 5.98873 64.0003 7.12128 64H29.5226C38.3984 64 44.944 60.136 49.4477 52.5974L60.3824 33.8288L66.2394 23.7843L83.817 53.9555H60.3824L54.5222 64ZM29.1574 53.9453L13.5242 53.9418L36.9584 13.7158L48.6515 33.8288L40.8224 47.272C37.8314 52.1632 34.4336 53.9453 29.1574 53.9453Z" fill="#00DC82"/>
</svg>
