<svg width="86" height="64" viewBox="0 0 86 64" fill="none" xmlns="http://www.w3.org/2000/svg">
<path d="M73.863 36.7911C70.8858 36.8067 68.2982 37.5237 66.1315 38.5837C65.3366 37.0093 64.5416 35.6064 64.4013 34.5776C64.2454 33.3774 64.0584 32.6448 64.2454 31.2107C64.4325 29.7766 65.2742 27.7346 65.2586 27.5788C65.243 27.4229 65.0716 26.6903 63.3569 26.6747C61.6423 26.6591 60.1614 27.002 59.99 27.4541C59.8185 27.9061 59.4912 28.9349 59.2729 29.9949C58.9768 31.5536 55.8436 37.1184 54.051 40.0333C53.4743 38.8954 52.9755 37.8978 52.8664 37.1029C52.7105 35.9026 52.5234 35.17 52.7105 33.7359C52.8976 32.3018 53.7393 30.2599 53.7237 30.104C53.7081 29.9481 53.5366 29.2155 51.822 29.1999C50.1073 29.1843 48.6265 29.5272 48.455 29.9793C48.2836 30.4313 48.0965 31.4913 47.738 32.5201C47.3795 33.5489 43.2176 42.8391 42.1264 45.2396C41.5653 46.4711 41.0821 47.4531 40.7391 48.1234C40.7391 48.1234 40.7235 48.1701 40.6768 48.2481C40.3806 48.8248 40.2091 49.1366 40.2091 49.1366C40.2091 49.1366 40.2091 49.1366 40.2091 49.1521C39.9753 49.573 39.7259 49.9627 39.6012 49.9627C39.5077 49.9627 39.3362 48.8404 39.6324 47.3128C40.2559 44.0861 41.7367 39.0669 41.7212 38.8954C41.7212 38.8019 42.0017 37.929 40.7547 37.477C39.5389 37.0249 39.1024 37.7731 38.9933 37.7731C38.8842 37.7731 38.8062 38.0381 38.8062 38.0381C38.8062 38.0381 40.1624 32.3954 36.2187 32.3954C33.7558 32.3954 30.3577 35.092 28.6742 37.5237C27.6143 38.1005 25.354 39.3319 22.9379 40.6568C22.0183 41.1712 21.0674 41.6856 20.1789 42.1689C20.1166 42.1065 20.0542 42.0286 19.9919 41.9662C15.222 36.869 6.39937 33.2683 6.77347 26.4253C6.91376 23.9312 7.77108 17.3844 23.7173 9.43467C36.8422 2.96578 47.286 4.75836 49.0941 8.73323C51.6817 14.4072 43.4982 24.9444 29.9368 26.472C24.7617 27.0488 22.0494 25.0536 21.3636 24.3053C20.6465 23.526 20.5374 23.4792 20.2724 23.6351C19.836 23.8689 20.1166 24.5703 20.2724 24.9756C20.6777 26.0356 22.3456 27.9061 25.167 28.8258C27.661 29.6363 33.7246 30.0884 41.0665 27.2514C49.2812 24.0715 55.7033 15.2333 53.8172 7.82914C51.9311 0.315865 39.4609 -2.16258 27.661 2.03051C20.6465 4.52455 13.0397 8.45265 7.56845 13.5654C1.06836 19.6446 0.039575 24.9289 0.460444 27.1423C1.97245 34.9985 12.8059 40.1113 17.1393 43.8991C16.9211 44.0238 16.7184 44.1329 16.547 44.2264C14.3803 45.302 6.11879 49.6198 4.06121 54.187C1.72305 59.3621 4.43531 63.072 6.2279 63.5708C11.7927 65.114 17.5134 62.3393 20.5842 57.7566C23.655 53.1738 23.2809 47.2193 21.8624 44.4914C21.8468 44.4602 21.8312 44.4291 21.8 44.3979C22.3612 44.0706 22.9379 43.7276 23.4991 43.4003C24.6058 42.7456 25.697 42.1377 26.6322 41.6389C26.1022 43.0885 25.7126 44.8188 25.5255 47.3128C25.2917 50.2433 26.4919 54.0467 28.0663 55.5431C28.7678 56.1978 29.5939 56.2134 30.1239 56.2134C31.9632 56.2134 32.7894 54.6858 33.7091 52.8776C34.8314 50.6642 35.8446 48.0922 35.8446 48.0922C35.8446 48.0922 34.582 55.0443 38.0113 55.0443C39.2583 55.0443 40.5209 53.4232 41.0821 52.597C41.0821 52.6126 41.0821 52.6126 41.0821 52.6126C41.0821 52.6126 41.1132 52.5659 41.1756 52.4567C41.3003 52.2541 41.3782 52.1294 41.3782 52.1294C41.3782 52.1294 41.3782 52.1138 41.3782 52.0982C41.877 51.2253 42.9993 49.2457 44.6672 45.9567C46.8183 41.7168 48.8915 36.417 48.8915 36.417C48.8915 36.417 49.0786 37.7108 49.7177 39.8619C50.0918 41.1245 50.8711 42.5118 51.4947 43.8523C50.9958 44.5538 50.6841 44.9435 50.6841 44.9435C50.6841 44.9435 50.6841 44.9435 50.6997 44.9591C50.2944 45.489 49.8579 46.0658 49.3747 46.6269C47.6757 48.6533 45.6493 50.9759 45.3687 51.6462C45.0413 52.4412 45.1193 53.0179 45.7428 53.4855C46.1948 53.8285 47.0054 53.8752 47.8315 53.8285C49.3591 53.7193 50.4347 53.3452 50.9647 53.1114C51.7908 52.8153 52.7573 52.3632 53.6613 51.6929C55.3292 50.4615 56.3424 48.7001 56.2489 46.3775C56.2021 45.0993 55.7813 43.8212 55.2669 42.6209C55.4228 42.4027 55.563 42.1844 55.7189 41.9662C58.3533 38.1161 60.3952 33.8918 60.3952 33.8918C60.3952 33.8918 60.5823 35.1856 61.2214 37.3367C61.5331 38.4278 62.1722 39.6125 62.7334 40.766C60.255 42.7768 58.7274 45.1149 58.1818 46.6425C57.1998 49.4795 57.9636 50.7577 59.4132 51.0539C60.0679 51.1941 61.0032 50.8824 61.689 50.5862C62.5619 50.3056 63.5907 49.8224 64.5728 49.1054C66.2406 47.874 67.8462 46.1593 67.7527 43.8367C67.7059 42.7768 67.4253 41.7324 67.0356 40.7192C69.14 39.8463 71.8522 39.3631 75.3127 39.7684C82.7325 40.6413 84.1977 45.2708 83.9171 47.2193C83.6366 49.1677 82.0778 50.2277 81.5634 50.555C81.049 50.8824 80.8775 50.9915 80.9243 51.2253C80.9866 51.5682 81.236 51.5527 81.6725 51.4903C82.2804 51.3812 85.5694 49.9159 85.7097 46.3308C85.9435 41.748 81.579 36.7443 73.863 36.7911ZM16.6249 56.0887C14.1621 58.7698 10.7328 59.783 9.25192 58.9256C7.66197 58.006 8.28548 54.0467 11.3095 51.2097C13.1489 49.4795 15.5182 47.874 17.0925 46.8919C17.4511 46.6737 17.981 46.3619 18.6201 45.9723C18.7293 45.9099 18.7916 45.8787 18.7916 45.8787C18.9163 45.8008 19.041 45.7229 19.1657 45.6449C20.2724 49.6977 19.2125 53.2673 16.6249 56.0887ZM34.5508 43.8991C33.6935 45.9878 31.9009 51.3344 30.8097 51.0383C29.8745 50.7889 29.2977 46.7361 30.6227 42.73C31.293 40.7192 32.7114 38.3187 33.5376 37.3834C34.8781 35.887 36.359 35.3882 36.7175 35.9961C37.1695 36.7911 35.0808 42.5897 34.5508 43.8991ZM49.3435 50.9759C48.985 51.163 48.6421 51.2877 48.4862 51.1941C48.3771 51.1318 48.6421 50.8824 48.6421 50.8824C48.6421 50.8824 50.497 48.8872 51.2297 47.9831C51.6505 47.4531 52.1493 46.8296 52.6793 46.1281C52.6793 46.1905 52.6793 46.2684 52.6793 46.3308C52.6793 48.7157 50.3723 50.3212 49.3435 50.9759ZM60.7538 48.3728C60.4888 48.1857 60.5355 47.5622 61.424 45.6137C61.767 44.8499 62.5775 43.5718 63.9648 42.3403C64.1207 42.8391 64.2298 43.3223 64.2142 43.7744C64.1986 46.7828 62.0475 47.9051 60.7538 48.3728Z" fill="#CD6799"/>
</svg>
