<svg width="256" height="256" viewBox="0 0 256 256" fill="none" xmlns="http://www.w3.org/2000/svg">
<rect width="256" height="256" rx="53" fill="white"/>
<path fill-rule="evenodd" clip-rule="evenodd" d="M211 134.515H133.188V152.758C133.188 157.97 135.781 160.576 140.969 160.576H211V171H45V160.576H115.031C120.219 160.576 122.812 157.97 122.812 152.758V134.515H45V103.242C45 92.8182 52.7812 85 63.1562 85L115.031 85C125.406 85 128 91.5152 128 91.5152C128 91.5152 130.594 85 140.969 85H192.844C203.219 85 211 92.8182 211 103.242V134.515ZM55.375 124.091H122.812V103.242C122.812 98.0303 120.219 95.4242 115.031 95.4242H63.1562C57.9688 95.4242 55.375 98.0303 55.375 103.242V124.091ZM200.625 124.091H133.188V103.242C133.188 98.0303 135.781 95.4242 140.969 95.4242H192.844C198.031 95.4242 200.625 98.0303 200.625 103.242V124.091Z" fill="black"/>
</svg>
