<svg width="65" height="64" viewBox="0 0 65 64" fill="none" xmlns="http://www.w3.org/2000/svg">
  <path
    d="M30.8632 0.0172226C30.7256 0.029733 30.2876 0.0735193 29.8935 0.104795C20.8034 0.924225 12.2888 5.82829 6.89603 13.3658C3.8931 17.5568 1.97247 22.3107 1.24677 27.3461C0.990265 29.1039 0.958984 29.623 0.958984 32.0063C0.958984 34.3895 0.990265 34.9087 1.24677 36.6664C2.98596 48.6826 11.5381 58.7785 23.1369 62.5191C25.2139 63.1884 27.4036 63.645 29.8935 63.9202C30.8632 64.0266 35.0548 64.0266 36.0245 63.9202C40.3224 63.4449 43.9635 62.3815 47.5545 60.5487C48.105 60.2672 48.2114 60.1922 48.1363 60.1296C48.0863 60.0921 45.7402 56.9457 42.925 53.1426L37.8075 46.2306L31.395 36.7414C27.8665 31.5246 24.9637 27.2586 24.9387 27.2586C24.9136 27.2523 24.8886 31.4683 24.8761 36.6163C24.8573 45.6301 24.8511 45.9929 24.7385 46.2055C24.5758 46.5121 24.4507 46.6372 24.1879 46.7748C23.9877 46.8749 23.8126 46.8936 22.8679 46.8936H21.7856L21.4978 46.7122C21.3101 46.5934 21.1725 46.437 21.0786 46.2556L20.9473 45.9741L20.9598 33.4324L20.9785 20.8845L21.1725 20.6406C21.2726 20.5092 21.4853 20.3403 21.6354 20.259C21.8919 20.1339 21.992 20.1214 23.0743 20.1214C24.3506 20.1214 24.5633 20.1714 24.8949 20.5342C24.9887 20.6343 28.4608 25.8637 32.6149 32.1626C36.769 38.4616 42.4495 47.0625 45.2397 51.2848L50.3072 58.9599L50.5637 58.791C52.8346 57.3148 55.237 55.213 57.1388 53.0237C61.1866 48.3761 63.7953 42.7089 64.6712 36.6664C64.9277 34.9087 64.959 34.3895 64.959 32.0063C64.959 29.623 64.9277 29.1039 64.6712 27.3461C62.932 15.3299 54.3799 5.23405 42.7811 1.49345C40.7353 0.830397 38.5582 0.373768 36.1183 0.0985401C35.5177 0.0359882 31.3824 -0.0328189 30.8632 0.0172226ZM43.9635 19.3708C44.2638 19.5209 44.5078 19.8086 44.5953 20.1089C44.6454 20.2715 44.6579 23.7494 44.6454 31.5872L44.6266 42.834L42.6434 39.794L40.654 36.754V28.5784C40.654 23.2928 40.679 20.3216 40.7166 20.1777C40.8167 19.8274 41.0356 19.5522 41.3359 19.3895C41.5924 19.2582 41.6863 19.2457 42.6685 19.2457C43.5944 19.2457 43.757 19.2582 43.9635 19.3708Z"
    className="fill-foreground" />
</svg>