<svg width="65" height="64" viewBox="0 0 65 64" fill="none" xmlns="http://www.w3.org/2000/svg">
  <path fill-rule="evenodd" clip-rule="evenodd"
    d="M64.959 32C64.959 49.6731 50.6321 64 32.959 64C15.2859 64 0.958984 49.6731 0.958984 32C0.958984 14.3269 15.2859 0 32.959 0C50.6321 0 64.959 14.3269 64.959 32ZM36.5309 31.9692C36.5309 30.0567 34.9318 28.506 32.959 28.506C30.9865 28.506 29.3872 30.0567 29.3872 31.9692C29.3872 33.882 30.9865 35.4325 32.959 35.4325C34.9318 35.4325 36.5309 33.882 36.5309 31.9692ZM42.9195 15.1882C46.2619 17.0566 45.3138 22.5677 44.5595 25.5396C47.6127 26.391 52.959 28.246 52.959 31.9692C52.959 35.671 47.6354 37.6293 44.6461 38.4846C45.4171 41.4925 46.2865 46.9297 42.9486 48.8032C39.6211 50.6708 35.3335 47.1832 33.0329 45.0309C30.7257 47.194 26.2887 50.6589 22.9367 48.7849C19.6069 46.9225 20.5811 41.5802 21.355 38.5732C18.2712 37.7197 12.959 35.7178 12.959 31.9692C12.959 28.2098 18.2767 26.3698 21.3789 25.5156C20.6078 22.525 19.5823 17.1053 22.9078 15.2388C26.2474 13.3645 30.6982 16.9139 32.9775 19.0322C35.2635 16.8925 39.5927 13.3279 42.9195 15.1882ZM42.1551 31.9774C42.991 33.6844 43.6743 35.3368 44.1806 36.8906C46.5385 36.2129 51.2503 34.7613 51.2503 31.9692C51.2503 29.203 46.3402 27.765 44.1019 27.1358C43.6098 28.6797 42.953 30.3108 42.1551 31.9774ZM34.2227 43.8425C35.9218 45.4274 39.6097 48.7626 42.0923 47.3693C44.5859 45.9697 43.5358 41.0325 42.9931 38.9049C41.3363 39.2762 39.5095 39.5482 37.5757 39.7145C36.4763 41.2576 35.3499 42.6472 34.2227 43.8425ZM23.0117 38.979C22.4424 41.1941 21.3076 45.9613 23.7905 47.3494C26.285 48.744 30.3927 45.2024 31.8358 43.8489C30.6678 42.6334 29.5087 41.2456 28.4022 39.7357C26.4638 39.5833 24.6501 39.3305 23.0117 38.979ZM21.8377 27.1114C19.5484 27.739 14.6676 29.1666 14.6676 31.9692C14.6676 34.7734 19.6306 36.3714 21.8135 36.9773C22.3187 35.3801 22.9847 33.7034 23.7873 32.0096C22.9949 30.3405 22.3383 28.69 21.8377 27.1114ZM31.7802 20.2148C30.1253 18.6811 26.257 15.2735 23.7639 16.6727C21.2735 18.0704 22.414 22.6956 23.0351 25.1076C24.6907 24.7438 26.4915 24.4724 28.3727 24.3033C29.4698 22.8021 30.6182 21.4247 31.7802 20.2148ZM42.4453 26.7221C41.2971 26.468 40.0743 26.2602 38.798 26.1041C39.6442 27.3901 40.4315 28.7124 41.165 30.0617C41.671 28.9134 42.1006 27.7933 42.4453 26.7221ZM35.3321 24.154C34.5555 23.151 33.7662 22.2266 32.9781 21.3988C32.1777 22.2362 31.3815 23.1593 30.6043 24.1529C32.1794 24.0814 33.757 24.0817 35.3321 24.154ZM23.4966 26.7046C23.8443 27.7912 24.27 28.9162 24.7677 30.0605C25.4885 28.706 26.2745 27.3842 27.123 26.101C25.855 26.2546 24.6379 26.457 23.4966 26.7046ZM23.4731 37.3809C24.614 37.6217 25.8495 37.8138 27.1594 37.9556C26.2983 36.6602 25.5003 35.3257 24.7696 33.957C24.2614 35.126 23.8262 36.2753 23.4731 37.3809ZM30.6187 39.8641C31.4077 40.8721 32.2155 41.8093 33.0254 42.6566C33.8082 41.8209 34.5947 40.8824 35.3737 39.856C33.7898 39.9245 32.2027 39.9244 30.6187 39.8641ZM42.5246 37.3092C42.1666 36.2222 41.7159 35.0792 41.1813 33.8976C40.4455 35.2728 39.6457 36.6156 38.7933 37.926C40.1126 37.7725 41.3647 37.5658 42.5246 37.3092ZM29.3374 38.1405C31.7611 38.2928 34.1991 38.2946 36.6221 38.1268C37.9716 36.161 39.1951 34.1096 40.2599 31.9854C39.1823 29.8794 37.9671 27.8374 36.6082 25.8901C34.1827 25.7108 31.7423 25.7113 29.3169 25.889C27.9462 27.8365 26.7291 29.8838 25.6759 32.009C26.7342 34.1386 27.9602 36.19 29.3374 38.1405ZM42.905 25.1248C43.4498 22.971 44.5598 18.018 42.0661 16.6234C39.5965 15.2425 35.8517 18.6472 34.1755 20.214C35.3187 21.4082 36.4575 22.788 37.5567 24.3054C39.4434 24.4772 41.2455 24.7534 42.905 25.1248Z"
    className="fill-foreground" />
</svg>