<svg width="65" height="64" viewBox="0 0 65 64" fill="none" xmlns="http://www.w3.org/2000/svg">
  <path fill-rule="evenodd" clip-rule="evenodd"
    d="M32.959 64C50.6321 64 64.959 49.6731 64.959 32C64.959 14.3269 50.6321 0 32.959 0C15.2859 0 0.958984 14.3269 0.958984 32C0.958984 49.6731 15.2859 64 32.959 64ZM16.959 32.4048C16.959 23.3411 24.119 16 32.959 16C41.799 16 48.959 23.3411 48.959 32.4048C48.958 35.8419 47.9058 39.1923 45.9505 41.9843C43.9952 44.7762 41.2352 46.8693 38.059 47.9688C37.259 48.1328 36.959 47.6202 36.959 47.1895C36.959 47.0044 36.9612 46.684 36.9642 46.2575C36.9701 45.4084 36.979 44.1387 36.979 42.6782C36.979 41.1403 36.479 40.156 35.899 39.6433C39.459 39.2332 43.199 37.8388 43.199 31.5435C43.199 29.739 42.579 28.2831 41.559 27.1347C41.719 26.7246 42.279 25.0431 41.399 22.7875C41.399 22.7875 40.059 22.3363 36.999 24.469C35.719 24.0998 34.359 23.9153 32.999 23.9153C31.639 23.9153 30.279 24.0998 28.999 24.469C25.939 22.3568 24.599 22.7875 24.599 22.7875C23.719 25.0431 24.279 26.7246 24.439 27.1347C23.419 28.2831 22.799 29.7595 22.799 31.5435C22.799 37.8183 26.519 39.2332 30.079 39.6433C29.619 40.0535 29.199 40.7712 29.059 41.8375C28.139 42.2681 25.839 42.9653 24.399 40.4841C24.099 39.992 23.199 38.7821 21.939 38.8026C20.599 38.8231 21.399 39.5818 21.959 39.8894C22.639 40.279 23.419 41.735 23.599 42.2066C23.919 43.1294 24.959 44.8929 28.979 44.1341C28.979 45.0306 28.9875 45.8922 28.9934 46.491C28.9966 46.8098 28.999 47.0541 28.999 47.1895C28.999 47.6202 28.699 48.1123 27.899 47.9688C21.539 45.7951 16.959 39.6639 16.959 32.4048Z"
    className="fill-foreground" />
</svg>