<svg width="65" height="64" viewBox="0 0 65 64" fill="none" xmlns="http://www.w3.org/2000/svg">
  <g opacity="0.3">
  </g>
  <path fill-rule="evenodd" clip-rule="evenodd"
    d="M32.959 64.002C50.6321 64.002 64.959 49.6751 64.959 32.002C64.959 14.3288 50.6321 0.00195312 32.959 0.00195312C15.2859 0.00195312 0.958984 14.3288 0.958984 32.002C0.958984 49.6751 15.2859 64.002 32.959 64.002ZM32.9586 12.002C27.6251 16.0556 24.1914 22.4024 24.1914 29.5365C24.1914 35.9404 26.9581 41.7098 31.3822 45.7558C31.3822 45.7558 32.1366 46.5225 32.1366 48.9883C32.1366 50.17 31.8626 52.002 31.8626 52.002H34.0544C34.0544 52.002 33.7074 50.1678 33.7804 48.9883C33.9332 46.5225 34.5349 45.7559 34.5349 45.7559C38.959 41.7099 41.7257 35.9404 41.7257 29.5365C41.7257 22.4024 38.2921 16.0556 32.9586 12.002Z"
    className="fill-foreground" />
</svg>
  